{
  "accessors": [
    {
      "bufferView": 2,
      "componentType": 5126,
      "count": 4407,
      "max": [
        0.20403100550174713,
        0.15109799802303314,
        0.42674800753593445
      ],
      "min": [
        -0.20376400649547577,
        -0.05435999855399132,
        -0.17148999869823456
      ],
      "type": "VEC3"
    },
    {
      "bufferView": 2,
      "byteOffset": 52884,
      "componentType": 5126,
      "count": 4407,
      "max": [
        0.9999911785125732,
        0.9987379908561707,
        0.9855973124504089
      ],
      "min": [
        -0.9999873638153076,
        -0.9999666213989258,
        -0.9999841451644897
      ],
      "type": "VEC3"
    },
    {
      "bufferView": 3,
      "componentType": 5126,
      "count": 4407,
      "max": [
        0.9999759793281555,
        0.9997062683105469,
        0.9992642998695374,
        1.0
      ],
      "min": [
        -0.9998559951782227,
        -0.9997847080230713,
        -0.9938095211982727,
        -1.0
      ],
      "type": "VEC4"
    },
    {
      "bufferView": 1,
      "componentType": 5126,
      "count": 4407,
      "max": [
        0.9876999855041504,
        0.9864000082015991
      ],
      "min": [
        0.021800000220537186,
        0.009100000374019146
      ],
      "type": "VEC2"
    },
    {
      "bufferView": 0,
      "componentType": 5125,
      "count": 23508,
      "type": "SCALAR"
    }
  ],
  "asset": {
    "extras": {
      "author": "T-Art (https://sketchfab.com/person-x)",
      "license": "CC-BY-4.0 (http://creativecommons.org/licenses/by/4.0/)",
      "source": "https://sketchfab.com/3d-models/hollow-mask-0bccc6dd6c8349a2ad50cb958237d522",
      "title": "Hollow Mask"
    },
    "generator": "Sketchfab-12.67.0",
    "version": "2.0"
  },
  "bufferViews": [
    {
      "buffer": 0,
      "byteLength": 94032,
      "name": "floatBufferViews",
      "target": 34963
    },
    {
      "buffer": 0,
      "byteLength": 35256,
      "byteOffset": 94032,
      "byteStride": 8,
      "name": "floatBufferViews",
      "target": 34962
    },
    {
      "buffer": 0,
      "byteLength": 105768,
      "byteOffset": 129288,
      "byteStride": 12,
      "name": "floatBufferViews",
      "target": 34962
    },
    {
      "buffer": 0,
      "byteLength": 70512,
      "byteOffset": 235056,
      "byteStride": 16,
      "name": "floatBufferViews",
      "target": 34962
    }
  ],
  "buffers": [
    {
      "byteLength": 305568,
      "uri": "scene.bin"
    }
  ],
  "images": [
    {
      "uri": "textures/HMask_baseColor.png"
    },
    {
      "uri": "textures/HMask_normal.png"
    }
  ],
  "materials": [
    {
      "doubleSided": true,
      "name": "HMask",
      "normalTexture": {
        "index": 1
      },
      "pbrMetallicRoughness": {
        "baseColorTexture": {
          "index": 0
        },
        "metallicFactor": 0.0,
        "roughnessFactor": 0.15853658536585366
      }
    }
  ],
  "meshes": [
    {
      "name": "Object_0",
      "primitives": [
        {
          "attributes": {
            "NORMAL": 1,
            "POSITION": 0,
            "TANGENT": 2,
            "TEXCOORD_0": 3
          },
          "indices": 4,
          "material": 0,
          "mode": 4
        }
      ]
    }
  ],
  "nodes": [
    {
      "children": [
        1
      ],
      "matrix": [
        1.0,
        0.0,
        0.0,
        0.0,
        0.0,
        2.220446049250313e-16,
        -1.0,
        0.0,
        0.0,
        1.0,
        2.220446049250313e-16,
        0.0,
        0.0,
        0.0,
        0.0,
        1.0
      ],
      "name": "Sketchfab_model"
    },
    {
      "children": [
        2
      ],
      "name": "Hollow Mask.obj.cleaner.materialmerger.gles"
    },
    {
      "mesh": 0,
      "name": "Object_2"
    }
  ],
  "samplers": [
    {
      "magFilter": 9729,
      "minFilter": 9987,
      "wrapS": 10497,
      "wrapT": 10497
    }
  ],
  "scene": 0,
  "scenes": [
    {
      "name": "Sketchfab_Scene",
      "nodes": [
        0
      ]
    }
  ],
  "textures": [
    {
      "sampler": 0,
      "source": 0
    },
    {
      "sampler": 0,
      "source": 1
    }
  ]
}
